<mxfile host="65bd71144e">
    <diagram id="HIP3nbAZw_EuaXWnEj3U" name="Page-1">
        <mxGraphModel dx="1180" dy="789" grid="1" gridSize="10" guides="1" tooltips="1" connect="1" arrows="1" fold="1" page="1" pageScale="1" pageWidth="850" pageHeight="1100" math="0" shadow="0">
            <root>
                <mxCell id="0"/>
                <mxCell id="1" parent="0"/>
                <mxCell id="25" value="http://ics2o.mths.ca" style="swimlane;whiteSpace=wrap;html=1;" vertex="1" parent="1">
                    <mxGeometry x="50" y="50" width="760" height="480" as="geometry"/>
                </mxCell>
                <mxCell id="26" value="" style="rounded=0;whiteSpace=wrap;html=1;fillColor=#f9f7ed;strokeColor=#36393d;fontSize=9;" vertex="1" parent="25">
                    <mxGeometry y="130" width="760" height="350" as="geometry"/>
                </mxCell>
                <mxCell id="27" value="Please enter the following:" style="text;html=1;strokeColor=none;fillColor=none;align=center;verticalAlign=middle;whiteSpace=wrap;rounded=0;fontColor=#0D0D0D;" vertex="1" parent="25">
                    <mxGeometry x="30" y="150" width="150" height="30" as="geometry"/>
                </mxCell>
                <mxCell id="28" value="l" style="text;html=1;strokeColor=none;fillColor=none;align=center;verticalAlign=middle;whiteSpace=wrap;rounded=0;fontColor=#0D0D0D;" vertex="1" parent="25">
                    <mxGeometry x="28" y="190" width="30" height="30" as="geometry"/>
                </mxCell>
                <mxCell id="29" value="" style="endArrow=none;html=1;fontColor=#0D0D0D;jumpSize=5;fillColor=#eeeeee;strokeColor=#36393d;" edge="1" parent="25">
                    <mxGeometry width="50" height="50" relative="1" as="geometry">
                        <mxPoint x="37" y="250" as="sourcePoint"/>
                        <mxPoint x="280" y="250" as="targetPoint"/>
                    </mxGeometry>
                </mxCell>
                <mxCell id="30" value="enter..." style="text;html=1;strokeColor=none;fillColor=none;align=center;verticalAlign=middle;whiteSpace=wrap;rounded=0;fontColor=#BDBBB9;" vertex="1" parent="25">
                    <mxGeometry x="28" y="220" width="60" height="30" as="geometry"/>
                </mxCell>
                <mxCell id="31" value="" style="whiteSpace=wrap;html=1;fillColor=#e3c800;fontColor=#000000;strokeColor=#B09500;" vertex="1" parent="25">
                    <mxGeometry y="20" width="760" height="110" as="geometry"/>
                </mxCell>
                <mxCell id="42" value="" style="shape=image;verticalLabelPosition=bottom;labelBackgroundColor=default;verticalAlign=top;aspect=fixed;imageAspect=0;image=data:image/png,iVBORw0KGgoAAAANSUhEUgAAAP0AAADICAIAAACs4HC1AAAfw0lEQVR4Ae1d/8+ktpnvn52bCF1OnBROqiKq5jgJqWorSNXeiXZ6Ukv2JCrNKahdyhWFthG5cilNg5SS0kWLWHURki/vPLt+WYbxGLD5Mnh+GWMb2zz+2H78+HkefwOJn6DA/ijwjf19svhiQQEkcC9AsEcKCNzvsdfFNwvcCwzskQIC93vsdfHNAvcCA3ukgMD9HntdfLPAvcDAHikgcL/HXhffLHAvMLBHCgjc77HXxTcL3AsM7JECAveL9XqapovVvfuKBe6XgUAQBLIsn06nZarffa0C9wtAoCxL9fyTZTmO4wVasPsqBe4XgIBhGKZpWpalnH9VVS3QiH1XKXA/d/9HUaQoiu/7tm1rmqbrummaTdPM3Y591ydwP2v/53muKMrpdErT1HVdRVFgGNi2PWs7dl+ZwP2sEDBN83g8hmFYVZXv+7quO46TZZmqqlEUzdqUfVcmcD9f/wPQ4/OvaRrP82zb1nUdIeR5niRJRVHM15p91yRwP1P/l2Upy3KSJEEQAL5d102SRJKksiwRQrZtq6pa1/VMDdp3NQL3c/R/0zSGYbium+e57/sIoaZpXNctikJVVSzK1DTteDzO0aDd1yFwPwcEfN/XNA0hFEVRkiQY903TmKaJN7VpmsqyDANjjmbtuA6Be+6dn2WZoihZllVVFQQBSOthvgfOXtd1zN7EcSzLslBh4N0rAve8KYwMwwB9hDRNsdAG4x7m+PaOFuT64jCLa8cI3HMlL3JdFyQ2MLVnWQb1Ae7huEqW5SAIcDuaptHPPxwjAswpIHDPnKSPBaZpqqoqYD3P8yAI8LlsG/cg1H98DSHY73qe144UYYYUELhnSMxuUaqqYo3LOI5hRwuZ2rgPgkDTNMziQ4YkSQ6HQ/uVbunieQIFBO4nEI/46ul0woo3cDrbZtnbuIdl4XIvC4oMbdafWKFIHEABgfsBxKLPmmWZLMsYsmmahmHYfr2N+7quNU3rFV9almUYRvtFEWZCAYF7JmR8oxDYmLa58yAIOtN5G/cIoePxaJrmG6WcH8qyVBTFcZzLJBEzhQIC91Oo1/+u4zhtEBdFEQRBh33v4D4MQ0VReotL01RRlM5y0ZtTRNJTQOCenlZUOeGUKs9znBsU0fAjBDq4L4pCkqTOmoBfEYw+JgWrgMA9K0o+lAOcekcY73keZvRxZR3c13Wt63qbNcI5IXA8HoXWWocmUx4F7qdQr/uubdttDgchlGVZL4vSwT3oY2L5T7fcsx6bpmlYk+cyg4gZRAGB+0HkImUGRrzN4SCEwjDs5V4ucR9FkaqqoJPcWw3IiHrFPr35RSSBAgL3BOIMSKqq6tJmqixL3/fbYntc4iXuq6oCBX2c5zIQRdHhcOgdSJeZRQyBAgL3BOIMSHIc51LQniQJVkTrlHWJe4SQpmk3RZaO42ia1juWOlWIRwIFBO4JxKFNiuO4l0XxPK/D9uASe3GPzQ5xtt6ApmmdXURvNhFJoIDAPYE4VElN06iqerl5hR0tVkTrlNWL+yRJFEW5FP503gWtNdd1O/HikZ4CAvf0tOrPadu2ZVmXadi06jKpbW/VTu2YHbaTOuE4jgny/k5m8XhJAYH7S5oMiInjWFGUzlksQqiqKs/zLuNx0b3zPUKobXaIM/cG4DDrGh/V+4qIxBQQuMekGBzoleFAKUmSXHI+7Qqu4R7sVK5xR+0SYJBcbqY7ecRjLwUE7nvJQhV5jcNBCAVBgE2resu6hvs0Tekd6YB/2ZsioN4G7DxS4H4kAMC/Xy8nA6ZVvUm4smu4b5pmkBZalmWSJJHXFlypCGAKCNxjUgwIVFWlado12XzHtKq33Gu4H8TiQ8m+76uqKhj9XjpfixS4v0YZUvylRSzODYC+ea5EwL3neUNPpizLUlWVcleAm7rngMD94N6PooiAy0vTqt4KCLhvW6P3vnsZWVWVrutCa+2SMtdiBO6vUaY/vq5rRVGumXs3TXNNEa1THAH3wOK3lZk77/Y+5nkuSdLQt3qL2kOkwP2wXibL14ui8H2fht8g4B4hZFnWCE2EMAxvarYN+9r7zS1wP6BvwzAkcDgIoV7Tqt4KyLiHW996XyRHOo4jzFPIJIJUgXsaKj3kqaqKwOGA6oHv+ze1a6A+Mu7JZofkFuu63qs3QX5rb6kC97Q9blkW+YQIdrQ0TM41/RzcFNinEswOcc7LACj5kJt6+dbeYgTuqXo8CAJVVclZoyiitwghz/c3zQ7JLRFOlcn0QQgJ3N8kEQInNtdkOPB+VVWu65LPaNs13cQ9mB3ePAdol9kOu64ry7I4zGrTpB0WuG9Toz9smiZ2c9mfAyGCaVXvKzdxX1XVRP+YpmkahkHJd/U28o4jBe5vdG4YhjclJCC2HzS53sQ9QqjtVvZGK/uSQV1UMPp9tBF8Ti9VXkfCDZtkzUpwFtL28f36bdI/De4pzQ4J1YB2p9BauySRmO8vafIYYxgGzXwZhiGZ+38s8XWIBvdg1EIpGH1dcPdfaK11KXJ+FrjvJctDpOd5uq7f5I/hJtqhG1Aa3Od53r7t8GpDbyVYlqVp2s0PuVXMXaUL3Pd3J76MrT+5FTt0Rwuv0uAeIcRE2wxOA8QNoa1OE/x9mxitMCWHAzvamxuAVsGvgpS4dxwHX491WQh9TJ7nsiwLRh9TTMz3mBSPAdd1KSWARVGMO1WlxH2apofDYSgT9fglrZDQWmsRQ8z3bWKcw3mew3WzFyk9EVEU4dvGe5KvR1HiHtSerxl2XS++P8W2bWGeAqQR8/0bEGmaxjAMSpdMdV0HQUDw5PpG0W8+UOIe2sPKoAQuYhFaa0JP4U0wIjSIn27fw9wt6NYzJe5BrERWfr5V1Rvp4H325vHzG+/c44OY7x97FU6p6HXLbjoLeSz6IkSPe3AeOGLrfFHnqwjwBDH0wOFaaRuNF7h/7Lhrlwo+5miFbnpEa+XtCdLjHiGkKApbA8LT6STL8jgOredjNhglcP+q0+C6WfoepDet6i1zEO5N02TLlDdNs3OtNYH7B1jSn1IBiGFHO0WDYBDuPc+7dtth76CiiQRJ0W4ZfYH7B5CofY68CejJsmwi4zEI9zAs6TcehJa3k5Ik2e1hlsA9Ag5nkPrK5T3MbTzRhAfhHtyz8bjZyvd9RVEGaVDTfN368+wd9zDnDToQrarq2q1V9P09CPeEC83pa7yW07IsGvW7a69vNH7XuG+aZpAMB/o4SZJxZ7RtiAzFPVxoTm/H2K6LHIY7d9num8k1riF117gnOPK+1jdN0/i+P50xGIp7MDtkzuLDZ6ZpKssyK22Ia6RbVfx+cQ+dPVQmk+c5Ez57KO6nmx2SYRdFkSRJ+znM2inuyY68CRAZYVrVW9oI3Nu2zfV2E9BaG7TV6f20TUTuFPfjMFRVVRAETJAxAvfgWWToAkWPwl1pre0R93Dd7Aj4jjOt6kXeCNyDgvT0LXVveyCyLEtZlvdwmLU73IP4Ytwezvd9VvphI3DPyuyQgHtwbUt2A0p+fSupu8P98XgcJ7Oj9/FN0/fjcG/btqZpNOVPyXM6nRRFGbEeTql05nf3hXvyVSVk0tPcWkUuoZ06DvdJkhwOBx5S/E7b4DCLd0XtSmcO7wj3TdOMVkeBM1qGirvjcA+eOscxaYOABU7P75jR3xHuj8fjaIM9ylur6LHVNE2SJIOUgsB7OPnCFfoG3MwJ5xv36oJhL7gnXDd7EwFwDzOns1Ka2tt54ELzeTgQz/NkWeYnOW1/18zhXeAePKSOZg+KogiCYB6o3ex+UKSbDYvH45HSpcrNlq8qwy5wP5E3mGhaxby/57y3sGkaVVXHScCYfzjDAu8f9xMvUAD3l6zm16Zp6rouimKKZtvMN1ilaaooyp0x+neO+7IsJ7pWzbKMWZe/ePbbX//KdV3P8556wYux0xe4OB779pj3QGuN1ZndmBawfufOcT+Rw0EIDbq16mbvNE3z+R8+9jzv4+jPNzNfywAT8Mz7bDgyYyjJvfZ188TfM+4ncjgIPdxsNd20qt2RTdN89skD7qO/PG/HDwqDMimzVYiu7jvTWrtb3A9yc3mt6xkqokEVdV3/9te/euoFf3vx92uV0sSPu9CcpmRCnqIoFEWhdKJIKGcNSXeLe8uyRp9S4Y7xPG/KBhSXgwMvn3/heZ4fflpVVVEUaZp+mZc4lT4A9uBDj73oy7+WM45jSZK46oReq5pt/H3i3vd9XdcnStzzPB96a9XNvin+9KnneeH5Bxtcz/P+74vs5oudDGVZHg6HRTaap9NJVdWta63dIe7B9el0kzm2O1oALjD3T70AsA6PH0d/HirbAYv4pVgO0zS37oLh3nAPHvCmK1TVde15HuNZ7SzH9Dwv+eolDAOY/kfM9/hC8846MM9jURQT7xidp52EWu4N96xk28x3tAihl8Vffd9vS+5hvh+He7hYl9WBGgEivUlZlm3aBcNd4X6oI+/eHgW1xzAMmXPPz7LPYFP7qt4Xz3zf9zxvnGwHpCvT2blrRLgZ77ou/cUwN0ubOcNd4Z7yMrabJIYd7cRt8WUtcGKFJfd4+r/MSRmjqirN9bqUpY3IBuYpI15c/JX7wT0o6DIhaBRFPOZRkNxjwSVM/1MObucxOySTVFXVLd4Qeie4Z8XhAJPjeR7zA3mQ3D/1Aox7rLDwtS+0cWtLkiSSJDHefJNhfpEKShNMfGldlM0x4k5wr2nadBkOkBlMq5gfCb38KnFd1w8/xSJLwL13/uHBMKir4Ux6tF3BoLoImcMwlCRpqR02oWGEpHvAveu6pmmOmzI7pBl9D3OnHMrHoijGIR6Xz2pLgwscFwBfa8wXyXGNoXlr87gHgRor2UtZlp7nMZ/saXpiXB64gJHJmB/XAPyWpmkbMk/ZNu5BSZDhseXaTKswqq4F0jRdnMWHtoGpA8O+uPbJTOK3jXvHcRhaf4KP723xqQghSZJm1km+hrwNOVXeMO6ZaBq3uxBMqzbE5EDjdV1fjyRxK1prW8U9uLlkKz4Lw3A2I6amaU6nE5MxBqoZTIpqzwKjw4Zh6Lo++vV5Xtwq7oHDYUijifcwD23JOH9pvbUkSaKq6mwjtrcN7cg8zxc/SG63pze8SdzDWQkrGQ7QhYciWi/FIZIh7sHVx0pYfPi6LMtWbp6yPdwDh8O2m+u6DsOQrWkVAfRwKuy6LivmxDz/yDXOnApaa+tZhTqfvz3cn04n5uwjD9OqDqE7jwzne4QQOPTrVLH4o2VZM3gtH/eZG8M9XFXC/FyQ1a1V9H3AFvcLmh0SPhmMwqZbOROqGJ20MdyrqspWhoMQ4mJadatD2OIePIus8MwITtOZd9kt6t5O3xLuHcfhcRKepun8ql1scQ8XmvMgzm0E3coRBIGiKHPunW616CF9M7gHP8DMdW6bpgmCYP5eYY77Zc0OyVBzHGdtLhi2gXuQ4QRBQKbviNSiKDzPG/HixFeY474sS0mS2Mp2J34jfr2u65l92eKqrwW2gXvbtjkt4pxMq66RG8czxz1CSFEUVkYIuJ2sAnBD0Xp2IBvAPScZDkII7mFmLh2iwQoP3Nu2zVzCS/MtlHmiKJJlmYcBJ2UD2tnWjnt+HA5CiPmtVW3KksM8cB/HsSzLzLdA5A8ZlOo4zkpuCF077k3T5MThwK1VSzHEPHAPijHzy6YGQd84/1gdVA+qup151biP41jTNE4K8eDjeylLJR64RwgZhrFaFh9gB77WFj/MWi/u4QpVfq53lzWt4oR7YPEXn03bM+tlGNxALMvorxf3x/PvkmpMYuq6DoJgkR0ttJ8T7tM0PRwOa2bx4fPhMGspJnO951bTryohD48sy3icBpArbadywn3TNJIkrZzFBzos61R5jfN9XdeKovDjcNZwDzMn3AOLvx6zw/ZQ74ThMGspRn+NuGdyVUmHyu1HENsvywzwwz34S1w5iw/dAVpriyy8q8M9cDhcuy1JEq6LSXuMXQvzw30cxxtyUwwXFs3P6K8L93CazRWUK3EWwg/3oLDA1h7t2uhlEm/btqIoXGe6y3auC/eWZfF2bJ3n+RrUwbni3jAMfod9lxiaGFNVFWitzQn9FeEeNGl5s908bq0a0fFccR8EgSzLI1q11CtlWcqyPKdi7Fpwz9CRN6Hz1rCjheZxxT24M5ifaSZQ/mYSbEu4srjtNqwF94ZhzCB9W8S0qk1uHOaKezA7XAM7h7+XJjCn1toqcM/kulkayjK/h5mm0t48XHG/ZrPDXmrgyNkcoiyPe7ifbAZHK0VR+L5fVdWc+yfco50Ab9yD80Dem6XOR01/BKUs3rKNVegpmKY5w6FdURRBEDxcJ+j7YRiCmVWaplmWfe2EY36tTN64r+t6qQvNJ6IfrAh4M/oLz/ee5+m6zhV2dV3Hcez7PiwpVVXleZ6mKTgGDM8/uE/T9/0oiuI4TtM0z/OyLOHmKR7rA2/cr9zskDw2QB7F1dh/SdzPcANrnucwu19b8Zumqeu6Ov/a4yEIAt/3gyCAgdEeD8ApTRwMM+Detm3DMMgIW20qaK3xmxCXxD1XIwk8zY8W5zVNU1VVURRZlrXXB9/3H25oe5NfgvWhrmvK8TAD7nnrtHIdM2Bfyk/Etxjuebi5xD0BasZxHFOiEL9IE2jOv6qqYDzEcRxFUXj+Ba9/eP+Q5zkwS50hMQPuweyQN6NMQ7FxeUBrjZPCxTK4B2MzHhY3dV1HUeT7PifrxGtdiPmloiiAX4rjOAzDzuIQx3GSJFmW5XnO0B/ytVZpmrYe1x3XGkmIB0Z/9IpNKHkZ3GuaxuNQOk1Tz/N4DCcCBWmS6rouy7KzPsCQ8DwPy5dgPMB+mslKtYYLzWnoQ8gDn8Cc0V8A9zwUxMuyDM+/BU0HCZ13mVTXteu6VVXBeADV6DAMg9c7afgc4JeyLCuKAjilQeMBzA4va99QDCdfa3PjPssyRVHYnlLBNM+2TN7IIPD3IF/C++k2v+R5XhAEIFwCfqkoCsJJXFVVK793hIbOeZ7LssxW7WJu3LPlcOA0Kooi5usgTX9MyUPAPaHYuq5hPMD6APtpELl2+CUYD1VVzXMsSGgzkyTwCsxwjz4r7oHDYYLRpmmSJPF9n8emh0lXkQsZh/vLMtv76SzL4DCuffhgWZau63g/DfzSZTnrjwHzlGvnMEPbPx/u4TI2JmIWsB2JomgQszuUNFzzs8I9oZHAL4FXyjAMgV8KgsB13Ta/BMoasD4wmZIITZqS1DSNaZqsTuJmwn3TNLquT5epVVUVRdEiHuun9NnluzPgHlcqyzLmEPDhQ1EU7cO48PyD4wcYJFh5iZ+yBm4hZQC01pg4hJsJ96fTyTRNys+7li3LMt/3OZ1GXauUU/ycuKe50BwOp8uy7ChrwOKAD6dBeQmU+RZZbEFrbbqDoDlwn6apLMtT1IxATBkEASv2jhOa6YudE/dhGCqKQt+2Tk4YEu3xAPJWz/OwvgZW5puBX/J9X5KkiUjgjnuwGh7tI6VpmjRNQZtykQmmAwJWj3PiHuYdhgIA2EzD/qE9HjCbFJ5/vcp8TDrRsizDMKZAnzvup1xGgE+jpnwhK6SyLWdO3M9pdoiV+drjIQzD9uLQVl4aZ/zQNI2iKFPMNvjiHq4qGSHDqet602LKm4NkTtwjhCzL4qfbePNjIUObX+oo84HKd3s8gGZ4R5mvXREcgI7mIzjivmmacdfNlmUJp5L3N83jnpsZ92B2uDYxJT58wPtpfDgNklbQXOqMB8wpTdFa44h727aHynCwNuWUTTDG1poDM+P+a1nk4XAYsfAuSMO28QNeH9rKfHEcw6nciPmRF+6BwxkEXxBTJkmytmmJR9/PjHuEkKqq089PeJCCvkw4fADl1jzPoyjSNM0wjBGA4YV7RVHoea+maeA0alsTEn2HXeacH/eO4wxdfi+bvZ4YcChrGMaguRW3nwvuB11VgsWUuE17CMyPe3DDuBU9bQIG0jTVdV1V1SmmWOxxH0UR5V2NoHQQhuEddAahn3qT5sd9nueKoqzQKKeXPr2RTdOcTidFUUzTHMHTt8tkjPu6rlVVvcnhYG3KbSnNtwk3MTw/7oHF52HmNpEUlK/D5ZaqqmJdI8oXe7Mxxj2NnBj79hixHen9hi1GVlUF9lZzNh5s9uaskUldVVWBErJt21iIObFklrhPkkRRFMLeFE/zDM/MJ37/Iq+naYpV5Odc8bZodghCG1VV2RKKGe7hqhKCohwWU7IasotAdnqlRVGAu0L//PM8jzBTTK+uXUJRFG2d5HbSCsN5nluWJUkSD/ErM9wTOBy8f52tg1fYi7hJSZJ0cD/bXhNMN2bwuoo/dlygaZogCFRVHS2mvFkvG9wT9HDENN/pA7CCh8ke/HKyXcE71XUeHccxDGPNS26e56ZpSpLE1pC8QwcGuL/m5rKqKtCv2KGYskPl9iNclQ5TPmihzLm/T9NUkqR1LrzgW0WSpOPxOFFM2SZ4b5gB7q3zr1N6kiRBEKRpuuappdPm2R7LsgSnblEUzT8pHA6H2TgrepLi0yjCFpG+tJs5p+I+CAJN09qjsygKsgvim20SGbhSgMbskGsDOoVXVeU4jiRJtm3PtvRNwn1VVbIs4wHaNA3oke5cTNnp17U9wpZx2VaBhhm0IU1TTdPm3ORMve/Esixs8yJOo5ZFEn3tcMzCb2767JOPj8ejZVlu+Dlu1We//8iyrKeff4kQevn8i5//4Lvf+9GHf3vxd8gwPzM8fr4HUwYwHbgP3x64k+470DSNpmlTlLpI9Hn+R8uyPtC/LUnSN3UzP2dtmuY///Uf33r7XcD9s/Sjw+GAH0mlcUsbiXvsWz3LMnC3Mv+Q5UaT+y+Yt/PA/DdPJEn63o8+fHGm5cvnX7z/ztvvvPed5KuXDxEvnv3wfWWTuDdN83g87k1p/m4GRBAEUzyL3KTDb+3/eMD9h7+DnM/Sj9rTP0Io/82Tt95+N/rL85tFccowZr73PA+ULmfei3AiwQ6LBbNDTiLUl8+/+PH3vyVJ0kdflEDbzjAA3D9O/0t0wGDcw1Ulx+MxCIIsywR7s0SvTa0T1MU5HYi+/Cr54fvKO+9959W29cUzGAY/+91fcbv9Jx988wdPgAvCkXMGBuMeIRQEgWmamqbJsnw4HGRZ1jQNZDtwFWaSJHmezyaL5Uov2LhzrWKRwkdY/VO2M/3f/3rgal7DGobBA1fzmqkBdr89DChLZphtDO4RQm0PEHA06zgOGLdr5596/mmaBlsoz/PiOIZ7O8DPKMNv4FHUs/QjVVU1TVNV9Se/DHlUsWyZlweOrNqDcQ8F+k8+kGX5rbffhekfuKB/+f4TVtWNK2ck7gmVwd0EaZrCGRaMh/bioKqqruuWZTmOg8fD6vilF88+/8PH3/7nf3pHUdtyaMKHbyupLEtZlnns0D77/UdAN9u2f/z9b8EMCPtax3EekjALtBzJ2OOe/C1FUeD14Xg8GoahaZqiKIfDQZIkVVVhfQC/x3BveFsJglw469Qvof/wAs26/IXLUxSFk9nhJ09/oZ9///6z0wMT//yPP//BdzVN03X9J78MF2TrMcXnxj2uGAJtd4p4PFiWBQwGcBpAr/Z4gEs7CE7kOrWMewQh9DvvfWcN/TTuE8hvTXFdSi4ZIVSff+1sq+JvF8Z9my6X4bIsgV8KguB0OsH+AS8OiqJgfgn202maMlwc/CcftIXQl83bekySJJIkMfmKLMuwmhaTAnkXsmrc9348qDQBv+T7PuwfDMMAnyrK+Yf300EQ0Nz711PRi2e/sP5NkqRlxQ49DWMXhQ/dpxRZ1/XpdJJl2XGc1W3Srn/Y9nB/7VuqqsK+p2E8mKapqqp8/gHLZBgG7Kdh/0Ayv3h9lr7gmeK1L2UYb5rmFOtVUJpXFGVbk/1UfUyGHcC1qLqusyyL4xivD7A4tM8fuu7mnv8RJA9f5q8OHbm2cKnCbdseZ3ZY1/XxeJQkaVvTPKbz/cz3+JNoAvj8Ic9zGA+djUH2Pz+VJOmVOOKixA0t6BdtfyMCzA473/5Gjr4H8O2h6zoPMWhfhezjdor7m4QElZKf/nfcmxOcR5xOpyAI4jjO83y7I+FwONDDF0/zp9Npu5+8Fz6nF7vEyC9BgxxrVnUye55n2zbcsgTnD5IkYX0Nx3HCMEySJE1TuOes8/qqHul1kn3fl2XZNM0uT7iq76FrjJjv++h0Zu7fevtdMJvoy/EqDt9dA3eFw3gwDENVVUVRYDOt6zreT4N8qaqqtqEdofwZkjzP03WdXFFRFKZpwjnXpqd5/JkC95gUjwE4af+H9370GDUqBHcjR1HkeR7WX8LnD+AX6Xg8uq4L/FKWZUNZ7VHteuOlJElUVSWYHbquK0mSZVkk8dcbRW7gQeC+p5OKP30K0k9FUdhqUOEbO+C6Dtd1QS9S13V8RI3P406nUxiGoKwB/BKnuVZV1V5BJFh8a5rWm9pDuO1ECdz39dWLZ588/YXjOH746TxyTOCXsiyD8+k2vwSa3qDMB2ZusJ9OkoSV4Yiu69g/ACaH4ziyLFuWNf8ShNvALyBwz4+2zEquqipN0yiKYH0AfQ1VVSVJOhwOeH1wXRf206DvTb84hGEoyzJuLnh91DRthe6lcCMnBgTuJxJwmdfhrvCiKEAxBsYDKLdiZT7Q57MsC/NLZVmCclhnSHxtJHQ4HKDM4/GoKMpGT6PoO0Pgnp5W28hZVRUIl2A/DSeyeHEAYSvILmE/DfJWsJiDMUPY426DBBStFLinINK9ZAF9DcwvmaYJ+2lFUWRZVlWVkzr+CukncL/CTpmvSfgu2DRNWe2S52v9hJoE7icQT7y6WQoI3G+260TDJ1BA4H4C8cSrm6XA/wPabX7jusvLDAAAAABJRU5ErkJggg==;" vertex="1" parent="25">
                    <mxGeometry x="540" y="166.62" width="173" height="136.76" as="geometry"/>
                </mxCell>
                <mxCell id="32" value="&lt;h1&gt;&lt;font color=&quot;#0d0d0d&quot;&gt;Volume of a square based pyramid&lt;/font&gt;&lt;/h1&gt;" style="text;html=1;strokeColor=none;fillColor=none;align=center;verticalAlign=middle;whiteSpace=wrap;rounded=0;" vertex="1" parent="1">
                    <mxGeometry x="210" y="70" width="440" height="120" as="geometry"/>
                </mxCell>
                <mxCell id="33" value="w" style="text;html=1;strokeColor=none;fillColor=none;align=center;verticalAlign=middle;whiteSpace=wrap;rounded=0;fontColor=#0D0D0D;" vertex="1" parent="1">
                    <mxGeometry x="80" y="306" width="30" height="30" as="geometry"/>
                </mxCell>
                <mxCell id="34" value="" style="endArrow=none;html=1;fontColor=#0D0D0D;jumpSize=5;fillColor=#eeeeee;strokeColor=#36393d;" edge="1" parent="1">
                    <mxGeometry width="50" height="50" relative="1" as="geometry">
                        <mxPoint x="88" y="368" as="sourcePoint"/>
                        <mxPoint x="331" y="368" as="targetPoint"/>
                    </mxGeometry>
                </mxCell>
                <mxCell id="35" value="enter..." style="text;html=1;strokeColor=none;fillColor=none;align=center;verticalAlign=middle;whiteSpace=wrap;rounded=0;fontColor=#BDBBB9;" vertex="1" parent="1">
                    <mxGeometry x="78" y="342" width="60" height="30" as="geometry"/>
                </mxCell>
                <mxCell id="36" value="h" style="text;html=1;strokeColor=none;fillColor=none;align=center;verticalAlign=middle;whiteSpace=wrap;rounded=0;fontColor=#0D0D0D;" vertex="1" parent="1">
                    <mxGeometry x="81" y="373" width="30" height="30" as="geometry"/>
                </mxCell>
                <mxCell id="37" value="" style="endArrow=none;html=1;fontColor=#0D0D0D;jumpSize=5;fillColor=#eeeeee;strokeColor=#36393d;" edge="1" parent="1">
                    <mxGeometry width="50" height="50" relative="1" as="geometry">
                        <mxPoint x="87" y="434" as="sourcePoint"/>
                        <mxPoint x="330" y="434" as="targetPoint"/>
                    </mxGeometry>
                </mxCell>
                <mxCell id="38" value="enter..." style="text;html=1;strokeColor=none;fillColor=none;align=center;verticalAlign=middle;whiteSpace=wrap;rounded=0;fontColor=#BDBBB9;" vertex="1" parent="1">
                    <mxGeometry x="78" y="409" width="60" height="30" as="geometry"/>
                </mxCell>
                <mxCell id="39" value="&lt;font color=&quot;#000000&quot; style=&quot;font-size: 9px;&quot;&gt;CALCULATE&lt;/font&gt;" style="rounded=1;whiteSpace=wrap;html=1;fillColor=#ffff88;strokeColor=none;fontSize=9;" vertex="1" parent="1">
                    <mxGeometry x="88" y="451" width="70" height="30" as="geometry"/>
                </mxCell>
                <mxCell id="40" value="V = 10u &lt;sup&gt;3&lt;/sup&gt;" style="text;html=1;strokeColor=none;fillColor=none;align=center;verticalAlign=middle;whiteSpace=wrap;rounded=0;fontColor=#0D0D0D;" vertex="1" parent="1">
                    <mxGeometry x="77" y="488" width="83" height="30" as="geometry"/>
                </mxCell>
            </root>
        </mxGraphModel>
    </diagram>
</mxfile>